<svg xmlns="http://www.w3.org/2000/svg" version="1.1" xmlns:xlink="http://www.w3.org/1999/xlink" xmlns:svgjs="http://svgjs.com/svgjs" width="1440" height="560" preserveAspectRatio="none" viewBox="0 0 1440 560"><g mask="url(&quot;#SvgjsMask1048&quot;)" fill="none"><rect width="1440" height="560" x="0" y="0" fill="rgba(37, 41, 52, 1)"></rect><path d="M62 447L61 793" stroke-width="6" stroke="url(#SvgjsLinearGradient1049)" stroke-linecap="round" class="Down"></path><path d="M518 369L517 205" stroke-width="6" stroke="url(#SvgjsLinearGradient1050)" stroke-linecap="round" class="Up"></path><path d="M229 262L228 503" stroke-width="10" stroke="url(#SvgjsLinearGradient1049)" stroke-linecap="round" class="Down"></path><path d="M1367 383L1366 628" stroke-width="6" stroke="url(#SvgjsLinearGradient1050)" stroke-linecap="round" class="Up"></path><path d="M142 406L141 122" stroke-width="6" stroke="url(#SvgjsLinearGradient1050)" stroke-linecap="round" class="Up"></path><path d="M995 481L994 702" stroke-width="10" stroke="url(#SvgjsLinearGradient1049)" stroke-linecap="round" class="Down"></path><path d="M1204 143L1203 -68" stroke-width="10" stroke="url(#SvgjsLinearGradient1050)" stroke-linecap="round" class="Up"></path><path d="M1292 389L1291 724" stroke-width="6" stroke="url(#SvgjsLinearGradient1050)" stroke-linecap="round" class="Up"></path><path d="M826 334L825 651" stroke-width="8" stroke="url(#SvgjsLinearGradient1050)" stroke-linecap="round" class="Up"></path><path d="M1179 365L1178 -33" stroke-width="8" stroke="url(#SvgjsLinearGradient1049)" stroke-linecap="round" class="Down"></path><path d="M628 479L627 133" stroke-width="8" stroke="url(#SvgjsLinearGradient1050)" stroke-linecap="round" class="Up"></path><path d="M446 206L445 366" stroke-width="6" stroke="url(#SvgjsLinearGradient1049)" stroke-linecap="round" class="Down"></path><path d="M780 232L779 525" stroke-width="6" stroke="url(#SvgjsLinearGradient1049)" stroke-linecap="round" class="Down"></path><path d="M1295 168L1294 420" stroke-width="10" stroke="url(#SvgjsLinearGradient1049)" stroke-linecap="round" class="Down"></path><path d="M1149 454L1148 297" stroke-width="10" stroke="url(#SvgjsLinearGradient1049)" stroke-linecap="round" class="Down"></path><path d="M218 483L217 258" stroke-width="8" stroke="url(#SvgjsLinearGradient1050)" stroke-linecap="round" class="Up"></path><path d="M1215 37L1214 231" stroke-width="6" stroke="url(#SvgjsLinearGradient1049)" stroke-linecap="round" class="Down"></path><path d="M873 10L872 194" stroke-width="6" stroke="url(#SvgjsLinearGradient1049)" stroke-linecap="round" class="Down"></path><path d="M56 465L55 664" stroke-width="6" stroke="url(#SvgjsLinearGradient1050)" stroke-linecap="round" class="Up"></path><path d="M104 233L103 566" stroke-width="6" stroke="url(#SvgjsLinearGradient1049)" stroke-linecap="round" class="Down"></path><path d="M782 470L781 245" stroke-width="8" stroke="url(#SvgjsLinearGradient1050)" stroke-linecap="round" class="Up"></path><path d="M1033 557L1032 145" stroke-width="8" stroke="url(#SvgjsLinearGradient1049)" stroke-linecap="round" class="Down"></path><path d="M1199 273L1198 -105" stroke-width="6" stroke="url(#SvgjsLinearGradient1050)" stroke-linecap="round" class="Up"></path><path d="M507 543L506 889" stroke-width="6" stroke="url(#SvgjsLinearGradient1050)" stroke-linecap="round" class="Up"></path><path d="M861 224L860 -153" stroke-width="8" stroke="url(#SvgjsLinearGradient1050)" stroke-linecap="round" class="Up"></path><path d="M1388 60L1387 386" stroke-width="10" stroke="url(#SvgjsLinearGradient1049)" stroke-linecap="round" class="Down"></path><path d="M170 154L169 383" stroke-width="10" stroke="url(#SvgjsLinearGradient1049)" stroke-linecap="round" class="Down"></path><path d="M1285 328L1284 -31" stroke-width="10" stroke="url(#SvgjsLinearGradient1050)" stroke-linecap="round" class="Up"></path><path d="M145 465L144 203" stroke-width="10" stroke="url(#SvgjsLinearGradient1050)" stroke-linecap="round" class="Up"></path><path d="M1084 241L1083 523" stroke-width="6" stroke="url(#SvgjsLinearGradient1050)" stroke-linecap="round" class="Up"></path><path d="M741 410L740 762" stroke-width="8" stroke="url(#SvgjsLinearGradient1050)" stroke-linecap="round" class="Up"></path><path d="M1346 86L1345 240" stroke-width="6" stroke="url(#SvgjsLinearGradient1049)" stroke-linecap="round" class="Down"></path><path d="M453 186L452 457" stroke-width="8" stroke="url(#SvgjsLinearGradient1050)" stroke-linecap="round" class="Up"></path><path d="M802 252L801 -108" stroke-width="8" stroke="url(#SvgjsLinearGradient1049)" stroke-linecap="round" class="Down"></path><path d="M253 355L252 168" stroke-width="6" stroke="url(#SvgjsLinearGradient1050)" stroke-linecap="round" class="Up"></path><path d="M899 71L898 408" stroke-width="8" stroke="url(#SvgjsLinearGradient1050)" stroke-linecap="round" class="Up"></path></g><defs><mask id="SvgjsMask1048"><rect width="1440" height="560" fill="#ffffff"></rect></mask><linearGradient x1="0%" y1="0%" x2="0%" y2="100%" id="SvgjsLinearGradient1049"><stop stop-color="rgba(84, 89, 106, 0)" offset="0"></stop><stop stop-color="rgba(84, 89, 106, 1)" offset="1"></stop></linearGradient><linearGradient x1="0%" y1="100%" x2="0%" y2="0%" id="SvgjsLinearGradient1050"><stop stop-color="rgba(84, 89, 106, 0)" offset="0"></stop><stop stop-color="rgba(84, 89, 106, 1)" offset="1"></stop></linearGradient></defs></svg>